<?xml version="1.0" encoding="UTF-8" standalone="no"?>
<svg
   version="1.0"
   width="712.000000pt"
   height="266.000000pt"
   viewBox="0 0 712.000000 266.000000"
   preserveAspectRatio="xMidYMid meet"
   id="svg14"
   sodipodi:docname="MIDI_LOGO_CROPPED.svg"
   inkscape:version="1.1.2 (0a00cf5339, 2022-02-04)"
   xmlns:inkscape="http://www.inkscape.org/namespaces/inkscape"
   xmlns:sodipodi="http://sodipodi.sourceforge.net/DTD/sodipodi-0.dtd"
   xmlns="http://www.w3.org/2000/svg"
   xmlns:svg="http://www.w3.org/2000/svg">
  <defs
     id="defs18" />
  <sodipodi:namedview
     id="namedview16"
     pagecolor="#ffffff"
     bordercolor="#666666"
     borderopacity="1.0"
     inkscape:pageshadow="2"
     inkscape:pageopacity="0.0"
     inkscape:pagecheckerboard="0"
     inkscape:document-units="pt"
     showgrid="false"
     inkscape:zoom="1.761236"
     inkscape:cx="356.85167"
     inkscape:cy="177.43222"
     inkscape:window-width="1888"
     inkscape:window-height="997"
     inkscape:window-x="14"
     inkscape:window-y="67"
     inkscape:window-maximized="1"
     inkscape:current-layer="svg14" />
  <metadata
     id="metadata2">
Created by potrace 1.16, written by Peter Selinger 2001-2019
</metadata>
  <g
     transform="translate(0.000000,266.000000) scale(0.100000,-0.100000)"
     fill="#000000"
     stroke="none"
     id="g12"
     style="fill:#6e6e6e;fill-opacity:1">
    <path
       d="M0 1330 l0 -1330 325 0 325 0 0 995 0 995 185 0 185 0 0 -995 0 -995 295 0 295 0 0 995 0 995 190 0 190 0 0 -995 0 -995 325 0 325 0 -2 1198 -3 1197 -23 57 c-32 80 -81 139 -143 173 l-54 30 -1207 3 -1208 2 0 -1330z"
       id="path4"
       style="fill:#6e6e6e;fill-opacity:1" />
    <path
       d="M2960 1330 l0 -1330 325 0 325 0 0 1330 0 1330 -325 0 -325 0 0 -1330z"
       id="path6"
       style="fill:#6e6e6e;fill-opacity:1" />
    <path
       d="M3920 2360 l0 -300 795 0 795 0 0 -705 0 -705 -465 0 -465 0 0 520 0 520 -330 0 -330 0 0 -845 0 -845 993 0 c1087 0 1072 -1 1147 58 19 15 49 55 65 87 l30 60 0 1095 0 1095 -23 57 c-32 80 -81 139 -143 173 l-54 30 -1007 3 -1008 2 0 -300z"
       id="path8"
       style="fill:#6e6e6e;fill-opacity:1" />
    <path
       d="M6460 1330 l0 -1330 330 0 330 0 0 1330 0 1330 -330 0 -330 0 0 -1330z"
       id="path10"
       style="fill:#6e6e6e;fill-opacity:1" />
  </g>
</svg>
